{"title":"The Bounty Hunter TS XViD - IMAGiNE","uid":5457565,"size":1467169980,"categoryP":"video","categoryS":"movies","magnet":"?xt=urn:btih:ce2af836f10392af6bce58041ad5a4ea9584d14a&amp;dn=The+Bounty+Hunter+TS+XViD+-+IMAGiNE&amp;tr=udp%3A%2F%2Ftracker.openbittorrent.com%3A80&amp;tr=udp%3A%2F%2Fopen.demonii.com%3A1337&amp;tr=udp%3A%2F%2Ftracker.coppersurfer.tk%3A6969&amp;tr=udp%3A%2F%2Fexodus.desync.com%3A6969","seeders":2,"leechers":0,"uploader":"IwannaFan2","files":3,"time":1269370266,"description":"Filename:\nThe Bounty Hunter TS XViD - IMAGiNE\n &lt;a href=&quot;\nhttp://www.imdb.com/title/tt1038919/&quot; rel=&quot;nofollow&quot; target=&quot;_NEW&quot;&gt;\nhttp://www.imdb.com/title/tt1038919/&lt;/a&gt;\n\nDETAILS:\n\nVideo\nFormat                           : MPEG-4 Visual\nFormat profile                   : Streaming Video@L1\nFormat settings, BVOP            : Yes\nFormat settings, QPel            : No\nFormat settings, GMC             : No warppoints\nFormat settings, Matrix          : Default\nCodec ID                         : XVID\nCodec ID/Hint                    : XviD\nDuration                         : 1h 46mn\nBit rate                         : 1 713 Kbps\nWidth                            : 720 pixels\nHeight                           : 304 pixels\nDisplay aspect ratio             : 2.35\nFrame rate                       : 25.000 fps\nResolution                       : 24 bits\nColorimetry                      : 4:2:0\nScan type                        : Progressive\nBits/(Pixel*Frame)               : 0.313\nStream size                      : 1.27 GiB (94%)\nWriting library                  : XviD 50\n\nAudio\nFormat                           : MPEG Audio\nFormat version                   : Version 1\nFormat profile                   : Layer 3\nCodec ID                         : 55\nCodec ID/Hint                    : MP3\nDuration                         : 1h 46mn\nBit rate mode                    : Constant\nBit rate                         : 96.0 Kbps\nChannel(s)                       : 2 channels\nSampling rate                    : 44.1 KHz\nResolution                       : 16 bits\nStream size                      : 73.0 MiB (5%)\nAlignment                        : Split accross interleaves\nInterleave, duration             : 40 ms (1.00 video frame)\nInterleave, preload duration     : 500 ms\n\n\nNOTES:\n\nIMAGiNE bringing you another release.....The bounty Hunter\nWell this is just a re-encode of the russian TS XViD (thanks) muxed with our own line.\nThe video is nice so it was not worth getting....we've opted to do a few tweaks here and there on it but\nnothing major.\nThe audio is the greatest we've had,but still better than cam audio.The audio picked up a high pitch sound for\nsome reason but we've cleaned it up the best we could.\n\nEnjoy.\n","torrent":{"xt":"urn:btih:ce2af836f10392af6bce58041ad5a4ea9584d14a","amp;dn":"The+Bounty+Hunter+TS+XViD+-+IMAGiNE","amp;tr":["udp%3A%2F%2Ftracker.openbittorrent.com%3A80","udp%3A%2F%2Fopen.demonii.com%3A1337","udp%3A%2F%2Ftracker.coppersurfer.tk%3A6969","udp%3A%2F%2Fexodus.desync.com%3A6969"],"infoHash":"ce2af836f10392af6bce58041ad5a4ea9584d14a","infoHashBuffer":{"type":"Buffer","data":[206,42,248,54,241,3,146,175,107,206,88,4,26,213,164,234,149,132,209,74]},"announce":[],"urlList":[]}}